<svg width="25" height="24" viewBox="0 0 25 24" fill="none" xmlns="http://www.w3.org/2000/svg">
<g id="Icon">
<mask id="mask0_12813_10524" style="mask-type:alpha" maskUnits="userSpaceOnUse" x="0" y="0" width="25" height="24">
<rect id="Bounding box" x="0.998047" width="24" height="24" fill="#D9D9D9"/>
</mask>
<g mask="url(#mask0_12813_10524)">
<path id="search" d="M20.598 21L14.298 14.7C13.798 15.1 13.223 15.4167 12.573 15.65C11.923 15.8833 11.2314 16 10.498 16C8.68138 16 7.14388 15.3708 5.88555 14.1125C4.62721 12.8542 3.99805 11.3167 3.99805 9.5C3.99805 7.68333 4.62721 6.14583 5.88555 4.8875C7.14388 3.62917 8.68138 3 10.498 3C12.3147 3 13.8522 3.62917 15.1105 4.8875C16.3689 6.14583 16.998 7.68333 16.998 9.5C16.998 10.2333 16.8814 10.925 16.648 11.575C16.4147 12.225 16.098 12.8 15.698 13.3L21.998 19.6L20.598 21ZM10.498 14C11.748 14 12.8105 13.5625 13.6855 12.6875C14.5605 11.8125 14.998 10.75 14.998 9.5C14.998 8.25 14.5605 7.1875 13.6855 6.3125C12.8105 5.4375 11.748 5 10.498 5C9.24805 5 8.18555 5.4375 7.31055 6.3125C6.43555 7.1875 5.99805 8.25 5.99805 9.5C5.99805 10.75 6.43555 11.8125 7.31055 12.6875C8.18555 13.5625 9.24805 14 10.498 14Z" fill="white"/>
</g>
</g>
</svg>
