<?xml version="1.0" encoding="utf-8"?>
<!-- Generator: Adobe Illustrator 27.9.0, SVG Export Plug-In . SVG Version: 6.00 Build 0)  -->
<svg version="1.1" id="レイヤー_1" xmlns="http://www.w3.org/2000/svg" xmlns:xlink="http://www.w3.org/1999/xlink" x="0px"
	 y="0px" viewBox="0 0 24 6" style="enable-background:new 0 0 24 6;" xml:space="preserve">
<style type="text/css">
	.st0{fill:#D9D9D9;filter:url(#Adobe_OpacityMaskFilter);}
	.st1{mask:url(#mask0_14312_44153_00000129907327705890975210000014712282709625658552_);}
	.st2{fill:#1B1A1E;}
</style>
<defs>
	<filter id="Adobe_OpacityMaskFilter" filterUnits="userSpaceOnUse" x="0" y="0" width="24" height="6">
		<feColorMatrix  type="matrix" values="1 0 0 0 0  0 1 0 0 0  0 0 1 0 0  0 0 0 1 0"/>
	</filter>
</defs>
<mask maskUnits="userSpaceOnUse" x="0" y="0" width="24" height="6" id="mask0_14312_44153_00000129907327705890975210000014712282709625658552_">
	<rect x="-10" y="-19" class="st0" width="44" height="44"/>
</mask>
<g class="st1">
	<path class="st2" d="M3,6C2.2,6,1.5,5.7,0.9,5.1C0.3,4.5,0,3.8,0,3s0.3-1.5,0.9-2.1C1.5,0.3,2.2,0,3,0s1.5,0.3,2.1,0.9
		C5.7,1.5,6,2.2,6,3S5.7,4.5,5.1,5.1C4.5,5.7,3.8,6,3,6z M12,6c-0.8,0-1.5-0.3-2.1-0.9C9.3,4.5,9,3.8,9,3s0.3-1.5,0.9-2.1
		C10.5,0.3,11.2,0,12,0s1.5,0.3,2.1,0.9C14.7,1.5,15,2.2,15,3s-0.3,1.5-0.9,2.1C13.5,5.7,12.8,6,12,6z M21,6c-0.8,0-1.5-0.3-2.1-0.9
		C18.3,4.5,18,3.8,18,3s0.3-1.5,0.9-2.1C19.5,0.3,20.2,0,21,0s1.5,0.3,2.1,0.9C23.7,1.5,24,2.2,24,3s-0.3,1.5-0.9,2.1
		C22.5,5.7,21.8,6,21,6z"/>
</g>
</svg>
