<svg width="29" height="33" viewBox="0 0 29 33" fill="none" xmlns="http://www.w3.org/2000/svg">
<g id="Frame" clip-path="url(#clip0_3430_23934)">
<g id="Group">
<path id="Vector" d="M1.17779 23.8728L1.67795 24.373C1.80299 24.498 1.96971 24.5605 2.17811 24.5605C2.3865 24.5605 2.57406 24.498 2.74078 24.373L14.9321 12.1192L27.1234 24.373C27.2901 24.498 27.4777 24.5605 27.6861 24.5605C27.8945 24.5605 28.0612 24.498 28.1862 24.373L28.6864 23.8728C28.8114 23.7478 28.8739 23.5811 28.8739 23.3727C28.8739 23.1643 28.8114 22.9976 28.6864 22.8725L15.4322 9.61838C15.3072 9.49334 15.1405 9.43082 14.9321 9.43082C14.7237 9.43082 14.557 9.49334 14.4319 9.61838L1.17779 22.8725C1.05275 22.9976 0.990234 23.1643 0.990234 23.3727C0.990234 23.5811 1.05275 23.7478 1.17779 23.8728Z" fill="white"/>
</g>
</g>
<defs>
<clipPath id="clip0_3430_23934">
<rect width="28.01" height="32.01" fill="white" transform="matrix(1 0 0 -1 0.990234 33)"/>
</clipPath>
</defs>
</svg>
