<svg width="19" height="19" viewBox="0 0 19 19" fill="none" xmlns="http://www.w3.org/2000/svg">
<g id="Frame 11046">
<circle id="Ellipse 2" cx="9.39844" cy="9.59961" r="8.5" stroke="#CA0813"/>
<path id="!" d="M10.293 4.87305L10.1268 10.9838H8.56718L8.39672 4.87305H10.293ZM9.34701 13.7111C9.06576 13.7111 8.82428 13.6117 8.62257 13.4128C8.42087 13.2111 8.32144 12.9696 8.32428 12.6884C8.32144 12.41 8.42087 12.1713 8.62257 11.9725C8.82428 11.7736 9.06576 11.6742 9.34701 11.6742C9.61689 11.6742 9.85411 11.7736 10.0587 11.9725C10.2632 12.1713 10.3669 12.41 10.3697 12.6884C10.3669 12.8759 10.3172 13.0478 10.2206 13.204C10.1268 13.3574 10.0033 13.481 9.84985 13.5748C9.69644 13.6657 9.52882 13.7111 9.34701 13.7111Z" fill="#CA0813"/>
</g>
</svg>
