<svg width="25" height="33" viewBox="0 0 25 33" fill="none" xmlns="http://www.w3.org/2000/svg">
<g id="Frame" clip-path="url(#clip0_333_3447)">
<g id="Group">
<path id="Vector" d="M21.9197 12.9415V0.942778H17.3577V9.69187C16.6494 9.40023 15.8995 9.19192 15.1079 9.06693V0.942778H10.6084V9.06693C9.81677 9.19192 9.06685 9.40023 8.35859 9.69187V0.942778H3.79656V12.9415C2.83833 14.0248 2.09882 15.2538 1.57804 16.6286C1.05726 18.0035 0.796875 19.42 0.796875 20.8782C0.796875 23.0446 1.33849 25.0549 2.42171 26.9088C3.50493 28.7628 4.96311 30.2314 6.79625 31.3146C8.6294 32.3978 10.65 32.9395 12.8581 32.9395C14.4413 32.9395 15.9724 32.6374 17.4514 32.0333C18.9304 31.4292 20.2324 30.5647 21.3572 29.4398C22.8571 27.94 23.8882 26.2006 24.4507 24.2216C25.0131 22.2426 25.0756 20.2533 24.6381 18.2535C24.2007 16.2537 23.2945 14.483 21.9197 12.9415ZM12.8581 29.9398C11.2333 29.9398 9.72303 29.544 8.32734 28.7524C6.93165 27.9608 5.8276 26.8776 5.01519 25.5027C4.20277 24.1279 3.78615 22.6176 3.76532 20.9719C3.74449 19.3263 4.12986 17.8056 4.92145 16.4099C5.71303 15.0142 6.79625 13.9102 8.17111 13.0978C9.54597 12.2853 11.0458 11.8583 12.6706 11.8166H12.9831C14.6079 11.8583 16.1078 12.2958 17.4826 13.129C18.8575 13.9623 19.9303 15.0663 20.7011 16.4412C21.4718 17.816 21.8572 19.3159 21.8572 20.9407C21.8572 22.5655 21.451 24.0654 20.6386 25.4402C19.8261 26.8151 18.7325 27.9087 17.3577 28.7211C15.9828 29.5336 14.483 29.9398 12.8581 29.9398ZM15.9828 21.8781L17.6076 27.3775L12.9206 24.1279L8.2336 27.3775L9.85843 21.8781L5.29641 18.441L11.0458 18.316L12.9206 12.879L14.7954 18.316L20.5448 18.441L15.9828 21.8781Z" fill="#004DB6"/>
</g>
</g>
<defs>
<clipPath id="clip0_333_3447">
<rect width="24.06" height="32" fill="white" transform="matrix(1 0 0 -1 0.796875 32.9414)"/>
</clipPath>
</defs>
</svg>
