<svg width="24" height="25" viewBox="0 0 24 25" fill="none" xmlns="http://www.w3.org/2000/svg">
<g id="Component 1">
<mask id="mask0_10273_71283" style="mask-type:alpha" maskUnits="userSpaceOnUse" x="0" y="0" width="24" height="25">
<rect id="Bounding box" y="0.189453" width="24" height="24" fill="#D9D9D9"/>
</mask>
<g mask="url(#mask0_10273_71283)">
<path id="download" d="M6 20.1895C5.45 20.1895 4.97917 19.9936 4.5875 19.602C4.19583 19.2103 4 18.7395 4 18.1895V15.1895H6V18.1895H18V15.1895H20V18.1895C20 18.7395 19.8042 19.2103 19.4125 19.602C19.0208 19.9936 18.55 20.1895 18 20.1895H6ZM12 16.1895L7 11.1895L8.4 9.73945L11 12.3395V4.18945H13V12.3395L15.6 9.73945L17 11.1895L12 16.1895Z" fill="#004DB6"/>
</g>
</g>
</svg>
