<?xml version="1.0" encoding="utf-8"?>
<!-- Generator: Adobe Illustrator 27.8.1, SVG Export Plug-In . SVG Version: 6.00 Build 0)  -->
<svg version="1.1" id="レイヤー_1" xmlns="http://www.w3.org/2000/svg" xmlns:xlink="http://www.w3.org/1999/xlink" x="0px"
	 y="0px" viewBox="0 0 17 17" style="enable-background:new 0 0 17 17;" xml:space="preserve">
<style type="text/css">
	.st0{display:none;fill:#004DB6;}
	.st1{fill:#DADADA;}
</style>
<g>
	<path class="st0" d="M16.5,0.5C16.1,0.2,15.7,0,15.2,0H1.8C1.3,0,0.9,0.2,0.5,0.5C0.2,0.9,0,1.3,0,1.8v13.4c0,0.5,0.2,0.9,0.5,1.3
		C0.9,16.8,1.3,17,1.8,17h13.4c0.5,0,0.9-0.2,1.3-0.5c0.4-0.3,0.5-0.8,0.5-1.3V1.8C17,1.3,16.8,0.9,16.5,0.5z M13.9,6.3l-5.2,6.5
		C8.5,12.9,8.3,13,8.1,13c0,0,0,0,0,0c-0.2,0-0.4-0.1-0.5-0.2L3.6,8.9c-0.3-0.3-0.3-0.8,0-1.1c0.3-0.3,0.8-0.3,1.1,0L8,11.2l4.7-5.8
		C13,5,13.5,5,13.8,5.2C14.1,5.5,14.2,6,13.9,6.3z"/>
	<path class="st1" d="M12.7,5.3L8,11.2L4.7,7.9c-0.3-0.3-0.8-0.3-1.1,0c-0.3,0.3-0.3,0.8,0,1.1l3.9,3.9C7.7,13,7.9,13,8.1,13
		c0,0,0,0,0,0c0.2,0,0.4-0.1,0.5-0.3l5.2-6.5c0.3-0.3,0.2-0.8-0.1-1.1C13.5,5,13,5,12.7,5.3z"/>
</g>
</svg>
