<svg width="147" height="33" viewBox="0 0 147 33" fill="none" xmlns="http://www.w3.org/2000/svg">
<g id="logo-jgoodtech.svg" clip-path="url(#clip0_9011_6478)">
<path id="Vector" d="M104.487 4.31087V3.14241C105.513 3.17172 106.883 3.28479 107.901 3.423V4.59985C106.837 4.46164 105.459 4.33181 104.487 4.31087ZM104.563 2.13309V0.973009C105.564 1.00233 106.904 1.11122 107.976 1.23686V2.42626C106.958 2.29643 105.534 2.16241 104.575 2.12053L104.563 2.13309ZM104.651 7.44351V6.1871C107.829 6.09915 109.345 5.06471 109.622 2.05352H110.949C110.677 6.03634 108.315 7.39745 104.667 7.44351H104.651ZM109.094 1.80223V0.709161H109.84V1.80223H109.094ZM110.112 1.80223V0.709161H110.857V1.80223H110.112ZM111.762 7.26343V6.1578H114.023V3.17591H112.126V2.07446H117.261V3.17591H115.242V6.1578H117.638V7.26343H111.762ZM124.988 1.53001C124.845 5.34112 122.802 7.29275 119.388 7.49796V6.34625C121.901 6.08241 123.329 4.74223 123.631 2.2336H120.821C120.603 2.78696 120.269 3.28714 119.841 3.70039C119.413 4.11365 118.902 4.43036 118.341 4.62915V3.37274C118.739 3.11415 119.079 2.77662 119.34 2.38109C119.602 1.98556 119.779 1.54049 119.862 1.07352H123.752V0.445312H124.498V1.05676H124.736V0.445312H125.49V1.52164L124.988 1.53001ZM130.407 4.18942C130.097 6.42583 128.455 7.32207 126.558 7.51891V6.30856C128.028 6.11172 128.841 5.33694 129.017 4.16848H125.884V3.0419H132.627V4.18942H130.407ZM126.34 2.18754V1.02746H132.204V2.18754H126.34ZM134.105 4.77574C133.941 3.81964 133.72 2.87422 133.443 1.94462H134.612C134.905 2.87316 135.141 3.8186 135.32 4.77574H134.105ZM134.746 7.56497V6.42582C137.259 5.90651 138 4.62497 138.017 2.07864V1.94462H139.273V2.08703C139.248 5.66361 137.573 7.14617 134.746 7.56497ZM136.04 4.70873C135.881 3.75763 135.667 2.81655 135.399 1.89019H136.559C136.857 2.8122 137.089 3.75404 137.254 4.70873H136.04ZM141.342 7.49796V6.34625C143.855 6.08241 145.283 4.74223 145.584 2.2336H142.737C142.516 2.78682 142.18 3.28665 141.751 3.69974C141.322 4.11283 140.81 4.42969 140.249 4.62915V3.37274C140.647 3.1151 140.988 2.77783 141.249 2.38214C141.511 1.98645 141.688 1.5409 141.769 1.07352H146.954V1.34574C146.887 5.27411 144.839 7.29275 141.342 7.49796ZM5.20154 11.6776L10.1979 11.2044V24.7359C10.1979 29.2925 7.73111 32.2744 3.05726 32.2744C2.43311 32.3094 1.80748 32.24 1.20615 32.0692L0 27.0728C0.696945 27.3219 1.43365 27.4412 2.17359 27.4246C4.68641 27.4246 5.20154 26.1305 5.20154 23.7224V11.6776ZM13.3473 22.2566H20.9611V26.252H13.3473V22.2566ZM39.2586 17.6414C37.9638 16.4612 36.2781 15.8018 34.5262 15.7903C31.0291 15.7903 28.4996 18.3031 28.4996 21.7582C28.4996 25.5275 31.4103 27.7262 34.9073 27.7262C35.6695 27.7262 37.1981 27.5796 37.7886 26.9933V24.0826H32.5578L33.9985 19.8192H42.7933V30.2516C40.7663 31.4284 37.3279 32.3079 34.2707 32.3079C28.4074 32.3079 23.5158 27.634 23.5158 21.7582C23.5158 15.8824 28.3949 11.2086 34.2707 11.2086C37.1676 11.1759 39.9813 12.1767 42.207 14.0313L39.2586 17.6414ZM84.4517 11.3342L89.0376 10.8651V31.8053L84.7491 32.2744V30.1008H84.6904C83.8528 31.688 82.1776 32.2744 80.3977 32.2744C79.3756 32.2689 78.3648 32.0611 77.4234 31.6629C76.4821 31.2647 75.629 30.684 74.9133 29.9543C74.1977 29.2246 73.6336 28.3604 73.2537 27.4115C72.8739 26.4627 72.6857 25.448 72.7001 24.426C72.7001 20.0453 75.9039 16.1672 80.3977 16.1672C81.8931 16.1493 83.3404 16.695 84.4517 17.6958V11.3342ZM80.9547 28.1743C83.011 28.1743 84.6276 26.3525 84.6276 24.2375C84.6276 22.1226 83.011 20.3008 80.9547 20.3008C78.8984 20.3008 77.2818 22.1226 77.2818 24.2375C77.2818 26.3525 78.8984 28.191 80.9547 28.191V28.1743ZM89.9045 16.2593L91.1609 11.6734H104.906V16.2593H100.073V31.6001L95.0768 32.0692V16.2593H89.9045ZM108.86 27.1063C109.387 27.8686 110.447 28.191 111.326 28.191C112.943 28.191 114.472 27.4288 115.707 26.4279L118.115 29.9542C116.117 31.3363 113.852 32.3037 111.238 32.3037C106.418 32.3037 103.097 28.1156 103.097 24.4553C103.097 19.9574 106.682 16.1965 111.033 16.1965C112.595 16.203 114.125 16.6399 115.455 17.4593C116.785 18.2787 117.863 19.4488 118.572 20.841L108.86 27.1063ZM113.094 20.64C112.625 20.1374 111.858 20.0244 111.067 20.0244C109.069 20.0244 107.511 21.9048 107.511 23.8439V24.3716L113.094 20.64ZM129.9 21.3855C129.065 20.6956 128.014 20.3219 126.931 20.3301C126.443 20.3167 125.957 20.4009 125.502 20.5777C125.047 20.7545 124.632 21.0203 124.281 21.3597C123.929 21.699 123.65 22.105 123.458 22.5539C123.265 23.0028 123.165 23.4854 123.162 23.9737C123.162 26.3232 124.632 28.2036 127.011 28.2036C128.084 28.2285 129.126 27.8402 129.921 27.1189L132.434 30.3814C131.232 31.6755 128.615 32.3204 126.939 32.3204C121.738 32.3204 118.597 28.5889 118.597 24.5307C118.597 19.5637 122.064 16.2133 126.939 16.2133C128.873 16.2046 130.754 16.8462 132.279 18.0351L129.9 21.3855ZM137.832 17.6414C138.822 16.719 140.123 16.2044 141.476 16.2007C145.618 16.2007 147 18.8475 147 22.6084V31.6001L142.414 32.0692V22.9309C142.414 21.1677 141.501 20.3175 140.123 20.3175C138.745 20.3175 137.832 21.1551 137.832 22.9309V31.6001L133.247 32.0692V11.3342L137.832 10.8651V17.6414Z" fill="#231815"/>
<path id="Vector_2" d="M70.5657 20.1294C69.8315 18.8739 68.7859 17.8289 67.5299 17.0953C66.274 16.3616 64.8501 15.9642 63.3958 15.9414C62.1924 15.9405 61.0062 16.2277 59.9365 16.779C56.8834 18.3495 56.2175 20.5482 55.8155 25.1132C55.5851 26.6083 54.9988 27.492 53.8638 28.07C53.3677 28.3248 52.8176 28.4569 52.2598 28.4553C51.4684 28.4273 50.6995 28.1845 50.0355 27.7529C49.3715 27.3214 48.8374 26.7172 48.4906 26.0053C48.4406 25.9129 48.3958 25.8179 48.3566 25.7205L48.2393 25.4441L44.5664 27.3161L44.7046 27.6302C44.7423 27.7182 44.7842 27.8103 44.8261 27.8982C45.5249 29.2816 46.5881 30.448 47.9011 31.2717C49.214 32.0953 50.7269 32.5449 52.2766 32.5721C53.4857 32.5757 54.6779 32.2884 55.7526 31.7345C58.299 30.432 59.6475 27.6972 59.8695 23.4087C60.1543 21.6204 60.7783 20.988 61.8295 20.4435C62.3246 20.1904 62.8732 20.0597 63.4293 20.0624C64.1301 20.0819 64.8155 20.2731 65.4252 20.6192C66.0349 20.9654 66.5503 21.4558 66.9263 22.0476L67.0645 22.257L70.7332 20.3723L70.5657 20.1294Z" fill="#9F003C"/>
<path id="Vector_3" d="M51.5491 15.9649C50.3443 15.9633 49.1566 16.2505 48.0856 16.8025C44.6096 18.5907 43.0013 22.8667 44.3415 26.7532L44.4462 27.0589L48.1484 25.166L48.0982 24.9524C47.6794 23.0971 48.4332 21.2501 49.9619 20.467C50.5186 20.1996 51.1325 20.0731 51.7496 20.0987C52.3667 20.1243 52.968 20.3011 53.5007 20.6136L53.6306 20.6848L57.605 18.6494L57.3244 18.3772C55.7834 16.857 53.7136 15.9925 51.5491 15.9649ZM70.9816 20.9193L70.8601 20.6555L67.1998 22.5401L67.3087 22.7788C68.2133 24.8351 67.5139 27.1637 65.7172 28.0808C65.1612 28.3528 64.5462 28.4822 63.9277 28.4574C63.3092 28.4325 62.7066 28.2542 62.1742 27.9384L62.0443 27.8672L58.0741 29.9068L58.3505 30.179C59.8926 31.7002 61.964 32.5648 64.13 32.5914C65.3348 32.5929 66.5225 32.3057 67.5935 31.7537C71.4339 29.7896 72.9207 25.032 70.9816 20.9193Z" fill="#231815"/>
</g>
<defs>
<clipPath id="clip0_9011_6478">
<rect width="147" height="32.1348" fill="white" transform="translate(0 0.453125)"/>
</clipPath>
</defs>
</svg>
