<svg width="20" height="41" viewBox="0 0 20 41" fill="none" xmlns="http://www.w3.org/2000/svg">
<g id="Frame">
<g id="Group">
<path id="Vector" d="M9.0625 10.9902C7.42188 10.9902 5.90495 11.3874 4.51172 12.1816C3.11849 12.9759 2.01823 14.0501 1.21094 15.4043C0.403646 16.7585 0 18.2428 0 19.8574C0 21.1074 0.253906 22.2858 0.761719 23.3926C1.26953 24.4993 1.96615 25.4694 2.85156 26.3027L2.96875 26.3809C4.0625 27.3965 5 28.1777 5.78125 28.7246C7.13542 29.6361 8.71094 30.3913 10.5078 30.9902V28.5684C11.9401 28.36 13.2357 27.8392 14.3945 27.0059C15.5534 26.1725 16.4648 25.1309 17.1289 23.8809C17.793 22.6309 18.125 21.2897 18.125 19.8574C18.125 18.2428 17.7214 16.7585 16.9141 15.4043C16.1068 14.0501 15.0065 12.9759 13.6133 12.1816C12.2201 11.3874 10.7031 10.9902 9.0625 10.9902ZM13.3594 21.1855C12.9948 21.1855 12.6758 21.0553 12.4023 20.7949C12.1289 20.5345 11.9922 20.2155 11.9922 19.8379C11.9922 19.4603 12.1289 19.1413 12.4023 18.8809C12.6758 18.6204 13.0013 18.4902 13.3789 18.4902C13.7565 18.4902 14.0755 18.6204 14.3359 18.8809C14.5964 19.1413 14.7266 19.4603 14.7266 19.8379C14.7266 20.2155 14.5964 20.5345 14.3359 20.7949C14.0755 21.0553 13.75 21.1855 13.3594 21.1855ZM9.0625 21.1855C8.67188 21.1855 8.34635 21.0553 8.08594 20.7949C7.82552 20.5345 7.69531 20.2155 7.69531 19.8379C7.69531 19.4603 7.82552 19.1413 8.08594 18.8809C8.34635 18.6204 8.67188 18.4902 9.0625 18.4902C9.45312 18.4902 9.77865 18.6204 10.0391 18.8809C10.2995 19.1413 10.4297 19.4603 10.4297 19.8379C10.4297 20.2155 10.2995 20.5345 10.0391 20.7949C9.77865 21.0553 9.45312 21.1855 9.0625 21.1855ZM6.13281 19.8574C6.13281 20.222 5.99609 20.5345 5.72266 20.7949C5.44922 21.0553 5.1237 21.1855 4.74609 21.1855C4.36849 21.1855 4.04948 21.0553 3.78906 20.7949C3.52865 20.5345 3.39844 20.2155 3.39844 19.8379C3.39844 19.4603 3.52865 19.1413 3.78906 18.8809C4.04948 18.6204 4.36849 18.4902 4.74609 18.4902C5.1237 18.4902 5.44922 18.6204 5.72266 18.8809C5.99609 19.1413 6.13281 19.4668 6.13281 19.8574Z" fill="#1D3782"/>
</g>
</g>
</svg>
