<svg width="21" height="41" viewBox="0 0 21 41" fill="none" xmlns="http://www.w3.org/2000/svg">
<g id="Frame" clip-path="url(#clip0_361_3881)">
<g id="Group">
<path id="Vector" d="M6.41016 20.7559C7.39974 20.7559 8.30469 20.4824 9.125 19.9355C9.94531 19.3887 10.5443 18.6595 10.9219 17.748C11.2995 16.8366 11.3906 15.8991 11.1953 14.9355C11 13.972 10.5573 13.1387 9.86719 12.4355C9.17708 11.7324 8.34375 11.2832 7.36719 11.0879C6.39062 10.8926 5.44661 10.9837 4.53516 11.3613C3.6237 11.7389 2.89453 12.3379 2.34766 13.1582C1.80078 13.9785 1.52734 14.8835 1.52734 15.873C1.52734 16.5241 1.65104 17.1491 1.89844 17.748C2.14583 18.347 2.4974 18.8743 2.95312 19.3301C3.40885 19.7858 3.9362 20.1374 4.53516 20.3848C5.13411 20.6322 5.75911 20.7559 6.41016 20.7559ZM8.87109 22.2793H3.94922C3.11589 22.7741 2.40625 23.5228 1.82031 24.5254C1.23438 25.528 0.941406 26.498 0.941406 27.4355V30.9902H11.8789V27.4355C11.8789 26.498 11.5859 25.528 11 24.5254C10.4141 23.5228 9.70443 22.7741 8.87109 22.2793Z" fill="#1D3782"/>
</g>
</g>
<defs>
<clipPath id="clip0_361_3881">
<rect width="20" height="40" fill="white" transform="matrix(1 0 0 -1 0.941406 40.9902)"/>
</clipPath>
</defs>
</svg>
