<svg width="21" height="41" viewBox="0 0 21 41" fill="none" xmlns="http://www.w3.org/2000/svg">
<g id="Frame" clip-path="url(#clip0_361_3887)">
<g id="Group">
<path id="Vector" d="M20.4414 20.4434C20.1029 19.9486 19.6471 19.4017 19.0742 18.8027C17.9805 17.6309 16.8477 16.6934 15.6758 15.9902C14.0352 15.0007 12.4271 14.5059 10.8516 14.5059C9.27604 14.5059 7.68099 15.0007 6.06641 15.9902C4.89453 16.6934 3.76172 17.6309 2.66797 18.8027C2.09505 19.4017 1.6263 19.9486 1.26172 20.4434L0.871094 20.9902L1.26172 21.5371C1.6263 22.0319 2.09505 22.5788 2.66797 23.1777C3.76172 24.3236 4.89453 25.248 6.06641 25.9512C7.68099 26.9408 9.27604 27.4355 10.8516 27.4355C12.4271 27.4355 14.0352 26.9408 15.6758 25.9512C16.8477 25.248 17.9805 24.3236 19.0742 23.1777C19.6471 22.5788 20.1029 22.0319 20.4414 21.5371L20.832 20.9902L20.4414 20.4434ZM10.8711 25.6777C9.30859 25.6777 7.68099 25.0658 5.98828 23.8418C4.89453 23.0605 3.89193 22.11 2.98047 20.9902C3.91797 19.8704 4.92057 18.9199 5.98828 18.1387C7.68099 16.8887 9.30859 16.2637 10.8711 16.2637C12.4336 16.2637 14.0612 16.8887 15.7539 18.1387C16.8216 18.9199 17.8242 19.8704 18.7617 20.9902C17.8242 22.11 16.8216 23.0605 15.7539 23.8418C14.0612 25.0658 12.4336 25.6777 10.8711 25.6777ZM7.78516 20.9902C7.78516 21.8236 8.08464 22.5332 8.68359 23.1191C9.28255 23.7051 10.0052 23.998 10.8516 23.998C11.6979 23.998 12.4206 23.7051 13.0195 23.1191C13.6185 22.5332 13.918 21.8236 13.918 20.9902C13.918 20.1569 13.6185 19.4473 13.0195 18.8613C12.4206 18.2754 11.6979 17.9824 10.8516 17.9824C10.0052 17.9824 9.28255 18.2754 8.68359 18.8613C8.08464 19.4473 7.78516 20.1569 7.78516 20.9902Z" fill="#1D3782"/>
</g>
</g>
<defs>
<clipPath id="clip0_361_3887">
<rect width="20" height="40" fill="white" transform="matrix(1 0 0 -1 0.871094 40.9902)"/>
</clipPath>
</defs>
</svg>
