<svg width="25" height="25" viewBox="0 0 25 25" fill="none" xmlns="http://www.w3.org/2000/svg">
<g id="Icon">
<mask id="mask0_10514_23255" style="mask-type:alpha" maskUnits="userSpaceOnUse" x="0" y="0" width="25" height="25">
<rect id="Bounding box" x="0.195312" y="0.953125" width="24" height="24" fill="#D9D9D9"/>
</mask>
<g mask="url(#mask0_10514_23255)">
<path id="download" d="M6.19531 20.9531C5.64531 20.9531 5.17448 20.7573 4.78281 20.3656C4.39115 19.974 4.19531 19.5031 4.19531 18.9531V15.9531H6.19531V18.9531H18.1953V15.9531H20.1953V18.9531C20.1953 19.5031 19.9995 19.974 19.6078 20.3656C19.2161 20.7573 18.7453 20.9531 18.1953 20.9531H6.19531ZM12.1953 16.9531L7.19531 11.9531L8.59531 10.5031L11.1953 13.1031V4.95312H13.1953V13.1031L15.7953 10.5031L17.1953 11.9531L12.1953 16.9531Z" fill="#1C1B1F"/>
</g>
</g>
</svg>
