<svg width="21" height="25" viewBox="0 0 21 25" fill="none" xmlns="http://www.w3.org/2000/svg">
<g id="Frame" clip-path="url(#clip0_6165_53712)">
<g id="Group">
<path id="Vector" d="M20.3247 7.11003C20.1425 6.90173 19.9146 6.79758 19.6413 6.79758C19.3679 6.79758 19.127 6.90173 18.9187 7.11003L18.0204 8.00832L19.4264 9.41433L20.3247 8.51604C20.507 8.30774 20.5981 8.0669 20.5981 7.79351C20.5981 7.52012 20.507 7.29229 20.3247 7.11003ZM11.5762 17.6551L14.5835 14.6088L12.7869 12.8122L9.74059 15.8585C9.66248 15.9627 9.62342 16.0734 9.62342 16.1905C9.62342 16.3077 9.66248 16.4183 9.74059 16.5225L10.9123 17.6942C10.9904 17.7723 11.0945 17.8113 11.2247 17.8113C11.3549 17.8113 11.4591 17.7723 11.5372 17.6942L11.5762 17.6551ZM8.80325 18.3581L8.37364 18.7877L8.60797 19.0221L9.03759 18.6315L10.8732 18.0066L9.38909 16.5616L8.80325 18.3581ZM17.4737 7.11003V4.53234C17.4737 3.95952 17.2784 3.47783 16.8878 3.08728C16.4973 2.69672 16.0156 2.50144 15.4427 2.50144H2.35903C1.78621 2.50144 1.30452 2.69672 0.913963 3.08728C0.523404 3.47783 0.328125 3.95952 0.328125 4.53234V20.4671C0.328125 21.04 0.523404 21.5216 0.913963 21.9122C1.30452 22.3028 1.78621 22.498 2.35903 22.498H15.4427C15.9895 22.498 16.4647 22.3028 16.8683 21.9122C17.2719 21.5216 17.4737 21.04 17.4737 20.4671V12.7731L16.0286 14.1791V20.0766C16.0286 20.2068 15.9895 20.3109 15.9114 20.389C15.8333 20.4671 15.7422 20.5062 15.638 20.5062H2.16375C2.0596 20.5062 1.96847 20.4671 1.89036 20.389C1.81225 20.3109 1.76017 20.2198 1.73414 20.1156V4.41518C1.73414 4.31103 1.77319 4.2199 1.8513 4.14178C1.92942 4.06367 2.02055 4.02462 2.1247 4.02462H15.638C15.7422 4.02462 15.8333 4.06367 15.9114 4.14178C15.9895 4.2199 16.0286 4.31103 16.0286 4.41518V8.51604L17.4737 7.11003ZM13.0994 12.4997L14.896 14.2963L19.3483 9.883L17.5518 8.04737L13.0994 12.4997ZM17.9814 9.45338C18.0595 9.5315 18.0985 9.62263 18.0985 9.72678C18.0985 9.83092 18.0595 9.92205 17.9814 10.0002L15.8333 12.1482C15.7552 12.2264 15.6576 12.2654 15.5404 12.2654C15.4232 12.2654 15.3321 12.2264 15.267 12.1482C15.2019 12.0701 15.1628 11.979 15.1498 11.8748C15.1368 11.7707 15.1694 11.6796 15.2475 11.6015L17.4346 9.45338C17.4867 9.37527 17.5648 9.33622 17.6689 9.33622C17.7731 9.33622 17.8642 9.36225 17.9423 9.41433L17.9814 9.45338ZM3.33543 8.04737L4.74144 9.45338L6.69423 7.50059L6.18651 6.99286L4.74144 8.43793L3.84315 7.50059L3.33543 8.04737ZM6.18651 10.7422L4.74144 12.1482L3.84315 11.25L3.33543 11.7967L4.74144 13.2418L6.69423 11.25L6.18651 10.7422ZM3.84315 14.9993L3.33543 15.5461L4.74144 16.9521L6.69423 14.9993L6.18651 14.4916L4.74144 15.9367L3.84315 14.9993Z" fill="#333333"/>
</g>
</g>
<defs>
<clipPath id="clip0_6165_53712">
<rect width="20.27" height="24" fill="white" transform="matrix(1 0 0 -1 0.328125 24.5)"/>
</clipPath>
</defs>
</svg>
