<svg width="24" height="25" viewBox="0 0 24 25" fill="none" xmlns="http://www.w3.org/2000/svg">
<g id="Icon">
<mask id="mask0_25875_2024" style="mask-type:alpha" maskUnits="userSpaceOnUse" x="0" y="0" width="24" height="25">
<rect id="Bounding box" y="0.900391" width="24" height="24" fill="#D9D9D9"/>
</mask>
<g mask="url(#mask0_25875_2024)">
<path id="edit" d="M5 19.9004H6.4L15.025 11.2754L13.625 9.87539L5 18.5004V19.9004ZM19.3 9.82539L15.05 5.62539L16.45 4.22539C16.8333 3.84206 17.3042 3.65039 17.8625 3.65039C18.4208 3.65039 18.8917 3.84206 19.275 4.22539L20.675 5.62539C21.0583 6.00872 21.2583 6.47122 21.275 7.01289C21.2917 7.55456 21.1083 8.01706 20.725 8.40039L19.3 9.82539ZM17.85 11.3004L7.25 21.9004H3V17.6504L13.6 7.05039L17.85 11.3004Z" fill="white"/>
</g>
</g>
</svg>
