<svg width="25" height="24" viewBox="0 0 25 24" fill="none" xmlns="http://www.w3.org/2000/svg">
<g clip-path="url(#clip0_10705_47040)">
<mask id="mask0_10705_47040" style="mask-type:alpha" maskUnits="userSpaceOnUse" x="1" y="-1" width="25" height="25">
<rect x="1.22266" y="-0.09375" width="24" height="24" fill="#D9D9D9"/>
</mask>
<g mask="url(#mask0_10705_47040)">
<path d="M13.2227 17.5312C13.506 17.5312 13.7437 17.4313 13.9357 17.2313C14.127 17.0313 14.2227 16.7896 14.2227 16.5063C14.2227 16.2229 14.127 15.9812 13.9357 15.7812C13.7437 15.5813 13.506 15.4812 13.2227 15.4812C12.9227 15.4812 12.677 15.5813 12.4857 15.7812C12.2937 15.9812 12.1977 16.2229 12.1977 16.5063C12.1977 16.7896 12.2937 17.0313 12.4857 17.2313C12.677 17.4313 12.9227 17.5312 13.2227 17.5312ZM12.4977 13.9312H13.9227C13.9227 13.4479 13.9893 13.0603 14.1227 12.7683C14.256 12.4769 14.5727 12.0813 15.0727 11.5813C15.5227 11.1479 15.8643 10.7436 16.0977 10.3682C16.331 9.99358 16.4477 9.55625 16.4477 9.05625C16.4477 8.18958 16.1393 7.51458 15.5227 7.03125C14.906 6.54792 14.1727 6.30625 13.3227 6.30625C12.4893 6.30625 11.7977 6.53125 11.2477 6.98125C10.6977 7.43125 10.306 7.95625 10.0727 8.55625L11.3727 9.05625C11.4893 8.73958 11.6937 8.42292 11.9857 8.10625C12.277 7.78958 12.7143 7.63125 13.2977 7.63125C13.8977 7.63125 14.3393 7.79358 14.6227 8.11825C14.906 8.44358 15.0477 8.79792 15.0477 9.18125C15.0477 9.51458 14.9477 9.82292 14.7477 10.1062C14.5477 10.3896 14.2977 10.6646 13.9977 10.9312C13.3477 11.5146 12.9353 11.9856 12.7607 12.3442C12.5853 12.7022 12.4977 13.2312 12.4977 13.9312ZM13.2227 21.4062C11.906 21.4062 10.6687 21.1562 9.51066 20.6562C8.35199 20.1562 7.34766 19.4813 6.49766 18.6313C5.64766 17.7812 4.97266 16.7769 4.47266 15.6182C3.97266 14.4602 3.72266 13.2229 3.72266 11.9062C3.72266 10.5896 3.97266 9.35192 4.47266 8.19325C4.97266 7.03525 5.64766 6.03125 6.49766 5.18125C7.34766 4.33125 8.35199 3.65625 9.51066 3.15625C10.6687 2.65625 11.906 2.40625 13.2227 2.40625C14.5393 2.40625 15.777 2.65625 16.9357 3.15625C18.0937 3.65625 19.0977 4.33125 19.9477 5.18125C20.7977 6.03125 21.4727 7.03525 21.9727 8.19325C22.4727 9.35192 22.7227 10.5896 22.7227 11.9062C22.7227 13.2229 22.4727 14.4602 21.9727 15.6182C21.4727 16.7769 20.7977 17.7812 19.9477 18.6313C19.0977 19.4813 18.0937 20.1562 16.9357 20.6562C15.777 21.1562 14.5393 21.4062 13.2227 21.4062ZM13.2227 19.9062C15.456 19.9062 17.3477 19.1312 18.8977 17.5812C20.4477 16.0312 21.2227 14.1396 21.2227 11.9062C21.2227 9.67292 20.4477 7.78125 18.8977 6.23125C17.3477 4.68125 15.456 3.90625 13.2227 3.90625C10.9893 3.90625 9.09766 4.68125 7.54766 6.23125C5.99766 7.78125 5.22266 9.67292 5.22266 11.9062C5.22266 14.1396 5.99766 16.0312 7.54766 17.5812C9.09766 19.1312 10.9893 19.9062 13.2227 19.9062Z" fill="#CA0813"/>
</g>
</g>
<defs>
<clipPath id="clip0_10705_47040">
<rect width="24" height="24" fill="white" transform="translate(0.75)"/>
</clipPath>
</defs>
</svg>
