<svg width="21" height="57" viewBox="0 0 21 57" fill="none" xmlns="http://www.w3.org/2000/svg">
<g id="Frame" clip-path="url(#clip0_7886_55186)">
<g id="Group">
<path id="Vector" d="M0 14.1379V42.1426H15.5338L20.73 36.2353V14.1379H0ZM18.9797 34.2116H13.9476V40.2829H1.6409V15.7788H18.9797V34.2116ZM2.62544 30.711V25.5148H4.26633C4.92269 25.5148 5.34203 25.5513 5.52435 25.6242C5.85253 25.6971 6.10778 25.8612 6.29011 26.1165C6.47243 26.3717 6.56359 26.7181 6.56359 27.1557C6.56359 27.4839 6.50889 27.7483 6.3995 27.9488C6.29011 28.1494 6.15336 28.3135 5.98927 28.4411C5.82518 28.5687 5.62463 28.6599 5.38761 28.7146C5.15059 28.7693 4.79507 28.7966 4.32103 28.7966H3.66467V30.711H2.62544ZM3.66467 26.39V27.8668H4.21164C4.64921 27.8668 4.93181 27.8485 5.05943 27.8121C5.18706 27.7756 5.29645 27.6936 5.38761 27.5659C5.47877 27.4383 5.52435 27.2925 5.52435 27.1284C5.52435 26.9643 5.46966 26.8184 5.36026 26.6908C5.25087 26.5632 5.11413 26.4811 4.95004 26.4447C4.78595 26.4082 4.52158 26.39 4.15694 26.39H3.66467ZM8.14979 25.5148H10.0642C10.5017 25.5148 10.8299 25.5513 11.0487 25.6242C11.3769 25.7336 11.6504 25.9068 11.8692 26.1438C12.0879 26.3808 12.252 26.6634 12.3614 26.9916C12.4708 27.3198 12.5255 27.7209 12.5255 28.195C12.5255 28.5596 12.4708 28.9242 12.3614 29.2889C12.252 29.6535 12.0788 29.9452 11.8418 30.164C11.6048 30.3828 11.3587 30.5287 11.1034 30.6016C10.8482 30.6745 10.52 30.711 10.1189 30.711H8.14979V25.5148ZM9.24372 26.39V29.8358H10.0095C10.2283 29.8723 10.4288 29.8723 10.6111 29.8358C10.7935 29.7994 10.9393 29.7265 11.0487 29.6171C11.1581 29.5077 11.2493 29.3345 11.3222 29.0974C11.3951 28.8604 11.4316 28.5414 11.4316 28.1403C11.4316 27.7391 11.4042 27.4383 11.3495 27.2378C11.2948 27.0372 11.1946 26.864 11.0487 26.7181C10.9028 26.5723 10.7479 26.4811 10.5838 26.4447C10.4197 26.4082 10.1189 26.39 9.68129 26.39H9.24372ZM14.1664 30.711V25.5148H17.7217V26.39H15.2056V27.648H17.3935V28.5231H15.2056V30.711H14.1664Z" fill="#333333"/>
</g>
</g>
<defs>
<clipPath id="clip0_7886_55186">
<rect width="20.73" height="56" fill="white" transform="matrix(1 0 0 -1 0 56.1406)"/>
</clipPath>
</defs>
</svg>
