<svg width="28" height="28" viewBox="0 0 28 28" fill="none" xmlns="http://www.w3.org/2000/svg">
<g id="Group">
<path id="Vector" d="M27.2891 11.4844L24.2812 11.3203C23.9531 11.3203 23.7344 11.1745 23.625 10.8828L23.0234 9.40625C22.8776 9.11458 22.9141 8.85938 23.1328 8.64062L25.2109 6.34375C25.3203 6.19792 25.375 6.03385 25.375 5.85156C25.375 5.66927 25.3021 5.50521 25.1562 5.35938L22.6406 2.84375C22.4948 2.69792 22.3307 2.625 22.1484 2.625C21.9661 2.625 21.8021 2.67969 21.6562 2.78906L19.3594 4.86719C19.1406 5.08594 18.8854 5.1224 18.5938 4.97656L17.1172 4.375C16.8255 4.26562 16.6797 4.04688 16.6797 3.71875L16.5156 0.710938C16.5156 0.492188 16.4427 0.31901 16.2969 0.191406C16.151 0.0638027 15.987 0 15.8047 0H12.1953C12.013 0 11.849 0.0638027 11.7031 0.191406C11.5573 0.31901 11.4844 0.492188 11.4844 0.710938L11.3203 3.71875C11.3203 4.04688 11.1745 4.26562 10.8828 4.375L9.40625 4.97656C9.11458 5.1224 8.85938 5.08594 8.64062 4.86719L6.34375 2.78906C6.19792 2.67969 6.03385 2.625 5.85156 2.625C5.66927 2.625 5.50521 2.69792 5.35938 2.84375L2.84375 5.35938C2.69792 5.50521 2.625 5.66927 2.625 5.85156C2.625 6.03385 2.67969 6.19792 2.78906 6.34375L4.86719 8.64062C5.08594 8.85938 5.1224 9.11458 4.97656 9.40625L4.375 10.8828C4.26562 11.1745 4.04688 11.3203 3.71875 11.3203L0.710938 11.4844C0.492188 11.4844 0.31901 11.5573 0.191406 11.7031C0.0638021 11.849 0 12.013 0 12.1953V15.8047C0 15.987 0.0638021 16.151 0.191406 16.2969C0.31901 16.4427 0.492188 16.5156 0.710938 16.5156L3.71875 16.6797C4.04688 16.6797 4.26562 16.8255 4.375 17.1172L4.97656 18.5938C5.1224 18.8854 5.08594 19.1406 4.86719 19.3594L2.78906 21.6562C2.67969 21.7656 2.625 21.9206 2.625 22.1211C2.625 22.3216 2.69792 22.4948 2.84375 22.6406L5.35938 25.1562C5.50521 25.3021 5.66927 25.375 5.85156 25.375C6.03385 25.375 6.19792 25.3203 6.34375 25.2109L8.64062 23.1328C8.85938 22.9141 9.11458 22.8776 9.40625 23.0234L10.8828 23.625C11.1745 23.7344 11.3203 23.9531 11.3203 24.2812L11.4844 27.2891C11.4844 27.5078 11.5573 27.681 11.7031 27.8086C11.849 27.9362 12.013 28 12.1953 28H15.8047C15.987 28 16.151 27.9362 16.2969 27.8086C16.4427 27.681 16.5156 27.5078 16.5156 27.2891L16.6797 24.2812C16.6797 23.9531 16.8255 23.7344 17.1172 23.625L18.5938 23.0234C18.8854 22.8776 19.1406 22.9141 19.3594 23.1328L21.6562 25.2109C21.8021 25.3203 21.9661 25.375 22.1484 25.375C22.3307 25.375 22.4948 25.3021 22.6406 25.1562L25.1562 22.6406C25.3021 22.4948 25.375 22.3307 25.375 22.1484C25.375 21.9661 25.3203 21.8021 25.2109 21.6562L23.1328 19.3594C22.9141 19.1406 22.8776 18.8854 23.0234 18.5938L23.625 17.1172C23.7344 16.8255 23.9531 16.6797 24.2812 16.6797L27.2891 16.5156C27.5078 16.5156 27.681 16.4427 27.8086 16.2969C27.9362 16.151 28 15.987 28 15.8047V12.1953C28 12.013 27.9362 11.849 27.8086 11.7031C27.681 11.5573 27.5078 11.4844 27.2891 11.4844ZM14 18.5938C13.0885 18.5938 12.2409 18.3294 11.457 17.8008C10.6732 17.2721 10.1081 16.5885 9.76172 15.75C9.41536 14.9115 9.33333 14.0365 9.51562 13.125C9.69792 12.2135 10.1172 11.4297 10.7734 10.7734C11.4297 10.1172 12.2135 9.69792 13.125 9.51562C14.0365 9.33333 14.9115 9.41537 15.75 9.76172C16.5885 10.1081 17.2721 10.6732 17.8008 11.457C18.3294 12.2409 18.5938 13.0885 18.5938 14C18.5938 15.276 18.1471 16.3607 17.2539 17.2539C16.3607 18.1471 15.276 18.5938 14 18.5938Z" fill="#333333"/>
</g>
</svg>
