<svg width="28" height="28" viewBox="0 0 28 28" fill="none" xmlns="http://www.w3.org/2000/svg">
<g id="Frame">
<g id="Group">
<path id="Vector" d="M14 11.7578C14.875 11.7578 15.6862 11.5117 16.4336 11.0195C17.181 10.5273 17.7188 9.87109 18.0469 9.05078C18.375 8.23047 18.457 7.39193 18.293 6.53516C18.1289 5.67838 17.737 4.93099 17.1172 4.29297C16.4974 3.65495 15.75 3.25391 14.875 3.08984C14 2.92578 13.1523 3.00781 12.332 3.33594C11.5117 3.66406 10.8555 4.20182 10.3633 4.94922C9.87109 5.69662 9.625 6.50781 9.625 7.38281C9.625 8.58594 10.0534 9.61589 10.9102 10.4727C11.7669 11.3294 12.7969 11.7578 14 11.7578ZM23.6797 13.7266C24.5911 13.7266 25.3659 13.4076 26.0039 12.7695C26.6419 12.1315 26.9609 11.3659 26.9609 10.4727C26.9609 9.57943 26.6419 8.8138 26.0039 8.17578C25.3659 7.53776 24.5911 7.21875 23.6797 7.21875C22.7682 7.21875 21.9935 7.53776 21.3555 8.17578C20.7174 8.8138 20.3984 9.57943 20.3984 10.4727C20.3984 11.3659 20.7174 12.1315 21.3555 12.7695C21.9935 13.4076 22.7682 13.7266 23.6797 13.7266ZM23.7344 14.4922C22.6042 14.4922 21.6198 14.8021 20.7812 15.4219C20.9271 15.7135 21.0365 16.0234 21.1094 16.3516L21.1641 16.4609V23.625H24.2266C25.2839 23.625 26.1771 23.2513 26.9062 22.5039C27.6354 21.7565 28 20.8724 28 19.8516V17.3359C27.8542 16.6797 27.4531 16.0781 26.7969 15.5312C25.9583 14.8385 24.9375 14.4922 23.7344 14.4922ZM4.32031 7.21875C3.66406 7.21875 3.0625 7.40104 2.51562 7.76562C1.96875 8.13021 1.56771 8.6224 1.3125 9.24219C1.05729 9.86198 0.99349 10.4909 1.12109 11.1289C1.2487 11.7669 1.54948 12.3229 2.02344 12.7969C2.4974 13.2708 3.05339 13.5716 3.69141 13.6992C4.32943 13.8268 4.95833 13.763 5.57812 13.5078C6.19792 13.2526 6.6901 12.8516 7.05469 12.3047C7.41927 11.7578 7.60156 11.1562 7.60156 10.5C7.60156 9.58854 7.28255 8.8138 6.64453 8.17578C6.00651 7.53776 5.23177 7.21875 4.32031 7.21875ZM0 17.3359V19.8516C0 20.8724 0.364583 21.7565 1.09375 22.5039C1.82292 23.2513 2.71615 23.625 3.77344 23.625H6.83594V16.4609L6.89062 16.3516C6.96354 16.0234 7.07292 15.7135 7.21875 15.4219C6.38021 14.8021 5.39583 14.4922 4.26562 14.4922C3.0625 14.4922 2.04167 14.8385 1.20312 15.5312C0.546875 16.0781 0.145833 16.6979 0 17.3906V17.3359ZM14 12.7969C12.8698 12.7969 11.849 13.0156 10.9375 13.4531C10.2083 13.8542 9.58854 14.3646 9.07812 14.9844C8.64062 15.5312 8.36719 16.0781 8.25781 16.625V22.9141C8.25781 23.4974 8.45833 23.9896 8.85938 24.3906C9.26042 24.7917 9.73438 24.9922 10.2812 24.9922H17.6641C18.2474 24.9922 18.7396 24.7917 19.1406 24.3906C19.5417 23.9896 19.7422 23.4974 19.7422 22.9141V16.625C19.6328 16.0781 19.3594 15.5312 18.9219 14.9844C18.4115 14.3646 17.7917 13.8542 17.0625 13.4531C16.151 13.0156 15.1302 12.7969 14 12.7969Z" fill="#333333"/>
</g>
</g>
</svg>
